<svg width="31" height="29" viewBox="0 0 31 29" fill="none" xmlns="http://www.w3.org/2000/svg">
<path d="M25.0298 2.41667H23.7783V1.20833C23.7783 0.887863 23.6464 0.580519 23.4117 0.353913C23.177 0.127306 22.8587 0 22.5268 0C22.1949 0 21.8765 0.127306 21.6418 0.353913C21.4072 0.580519 21.2753 0.887863 21.2753 1.20833V2.41667H16.2693V1.20833C16.2693 0.887863 16.1375 0.580519 15.9028 0.353913C15.6681 0.127306 15.3498 0 15.0179 0C14.6859 0 14.3676 0.127306 14.1329 0.353913C13.8982 0.580519 13.7664 0.887863 13.7664 1.20833V2.41667H8.76042V1.20833C8.76042 0.887863 8.62856 0.580519 8.39386 0.353913C8.15916 0.127306 7.84084 0 7.50893 0C7.17701 0 6.85869 0.127306 6.62399 0.353913C6.38929 0.580519 6.25744 0.887863 6.25744 1.20833V2.41667H5.00595C3.67829 2.41667 2.40501 2.92589 1.46621 3.83232C0.527411 4.73874 0 5.96812 0 7.25V24.1667C0 25.4485 0.527411 26.6779 1.46621 27.5843C2.40501 28.4908 3.67829 29 5.00595 29H25.0298C26.3574 29 27.6307 28.4908 28.5695 27.5843C29.5083 26.6779 30.0357 25.4485 30.0357 24.1667V7.25C30.0357 5.96812 29.5083 4.73874 28.5695 3.83232C27.6307 2.92589 26.3574 2.41667 25.0298 2.41667ZM5.00595 4.83333H6.25744V6.04167C6.25744 6.36214 6.38929 6.66948 6.62399 6.89609C6.85869 7.12269 7.17701 7.25 7.50893 7.25C7.84084 7.25 8.15916 7.12269 8.39386 6.89609C8.62856 6.66948 8.76042 6.36214 8.76042 6.04167V4.83333H13.7664V6.04167C13.7664 6.36214 13.8982 6.66948 14.1329 6.89609C14.3676 7.12269 14.6859 7.25 15.0179 7.25C15.3498 7.25 15.6681 7.12269 15.9028 6.89609C16.1375 6.66948 16.2693 6.36214 16.2693 6.04167V4.83333H21.2753V6.04167C21.2753 6.36214 21.4072 6.66948 21.6418 6.89609C21.8765 7.12269 22.1949 7.25 22.5268 7.25C22.8587 7.25 23.177 7.12269 23.4117 6.89609C23.6464 6.66948 23.7783 6.36214 23.7783 6.04167V4.83333H25.0298C25.6936 4.83333 26.3302 5.08795 26.7996 5.54116C27.269 5.99437 27.5327 6.60906 27.5327 7.25V9.66667H2.50298V7.25C2.50298 6.60906 2.76668 5.99437 3.23608 5.54116C3.70548 5.08795 4.34212 4.83333 5.00595 4.83333ZM25.0298 26.5833H5.00595C4.34212 26.5833 3.70548 26.3287 3.23608 25.8755C2.76668 25.4223 2.50298 24.8076 2.50298 24.1667V12.0833H27.5327V24.1667C27.5327 24.8076 27.269 25.4223 26.7996 25.8755C26.3302 26.3287 25.6936 26.5833 25.0298 26.5833Z" fill="black"/>
<path d="M19.4454 20.8416L18.5217 21.2345C17.4125 21.6912 16.2205 21.9265 15.0163 21.9265C13.8121 21.9265 12.6202 21.6912 11.5109 21.2345L10.5872 20.8416C10.4378 20.7686 10.2746 20.726 10.1077 20.7164C9.94081 20.7068 9.77365 20.7304 9.61641 20.7858C9.45917 20.8412 9.31516 20.9271 9.19314 21.0385C9.07113 21.1499 8.97366 21.2843 8.90669 21.4335C8.83972 21.5828 8.80464 21.7438 8.8036 21.9067C8.80255 22.0695 8.83556 22.2309 8.90061 22.381C8.96566 22.531 9.0614 22.6666 9.18198 22.7795C9.30255 22.8923 9.44545 22.9801 9.60197 23.0373L10.5257 23.4333C11.9439 24.031 13.4727 24.3393 15.0179 24.3393C16.563 24.3393 18.0919 24.031 19.5101 23.4333L20.4337 23.0373C20.5903 22.9801 20.7332 22.8923 20.8537 22.7795C20.9743 22.6666 21.07 22.531 21.1351 22.381C21.2002 22.2309 21.2332 22.0695 21.2321 21.9067C21.2311 21.7438 21.196 21.5828 21.129 21.4335C21.0621 21.2843 20.9646 21.1499 20.8426 21.0385C20.7206 20.9271 20.5765 20.8412 20.4193 20.7858C20.2621 20.7304 20.0949 20.7068 19.928 20.7164C19.7611 20.726 19.5979 20.7686 19.4485 20.8416H19.4454Z" fill="black"/>
<path d="M10.6161 18.125C11.6171 18.125 12.4286 17.3135 12.4286 16.3125C12.4286 15.3115 11.6171 14.5 10.6161 14.5C9.61506 14.5 8.80357 15.3115 8.80357 16.3125C8.80357 17.3135 9.61506 18.125 10.6161 18.125Z" fill="black"/>
<path d="M19.4196 18.125C20.4207 18.125 21.2321 17.3135 21.2321 16.3125C21.2321 15.3115 20.4207 14.5 19.4196 14.5C18.4186 14.5 17.6071 15.3115 17.6071 16.3125C17.6071 17.3135 18.4186 18.125 19.4196 18.125Z" fill="black"/>
</svg>
