<svg width="24" height="24" viewBox="0 0 24 24" fill="none" xmlns="http://www.w3.org/2000/svg">
<path d="M11.6316 0C5.21824 0 0 5.21777 0 11.632C0 13.9056 0.655404 16.1041 1.89493 17.9907C1.90373 18.0042 1.91715 18.0111 1.92733 18.0231V19.2752C1.92733 19.9343 2.46332 20.4703 3.12243 20.4703C3.21546 20.4703 3.30479 20.4573 3.39181 20.4369V21.6691C3.39181 22.9539 4.43694 23.9995 5.72229 23.9995C7.00764 23.9995 8.05276 22.9539 8.05276 21.6691V14.1217C8.05276 12.8368 7.00717 11.7913 5.72229 11.7913C4.54848 11.7913 3.58436 12.667 3.42467 13.7973C3.22749 13.0761 3.12474 12.3282 3.12474 11.558C3.12474 6.86693 6.94099 3.05022 11.632 3.05022C16.3231 3.05022 20.1393 6.86693 20.1393 11.558C20.1393 12.3245 20.0375 13.0697 19.8412 13.788C19.6779 12.6619 18.7156 11.7913 17.5446 11.7913C16.2597 11.7913 15.2141 12.8368 15.2141 14.1217V21.6695C15.2141 22.9544 16.2597 24 17.5446 24C18.8294 24 19.875 22.9544 19.875 21.6695V20.6795C19.962 20.6998 20.0514 20.7128 20.1444 20.7128C20.8035 20.7128 21.3395 20.1768 21.3395 19.5177V18.025C21.3492 18.0134 21.3603 18.0037 21.3687 17.9907C22.6082 16.1041 23.2636 13.9056 23.2636 11.632C23.2631 5.21824 18.0449 0 11.6316 0Z" fill="#4A4A4A"/>
</svg>
