<svg width="24" height="24" viewBox="0 0 24 24" fill="none" xmlns="http://www.w3.org/2000/svg">
<path d="M12 1C5.92475 1 1 5.925 1 12C1 18.0752 5.92475 23 12 23C18.0752 23 23 18.0752 23 12C23 5.925 18.0752 1 12 1ZM12 21C7.0295 21 3 16.9707 3 12C3 7.0295 7.0295 3 12 3C16.9705 3 21 7.0295 21 12C21 16.9707 16.9705 21 12 21ZM15.707 14.293C16.0975 14.6835 16.0975 15.3167 15.707 15.7072C15.512 15.9022 15.2557 16 15 16C14.7442 16.0002 14.4882 15.9025 14.293 15.7072L11.293 12.7072C11.1055 12.5197 11 12.2655 11 12V6C11 5.44775 11.4477 5 12 5C12.5522 5 13 5.44775 13 6V11.586L15.707 14.293Z" fill="#4A4A4A"/>
</svg>
