<svg width="16" height="16" viewBox="0 0 16 16" fill="none" xmlns="http://www.w3.org/2000/svg">
<path d="M10.3579 14.4842L10.4421 14.4C10.9474 14.0632 11.3684 13.6421 11.7895 13.2211C11.7895 13.0526 11.8737 12.8842 11.8737 12.7158C12.0421 12.6316 12.2105 12.4632 12.3789 12.3789C12.5474 11.9579 12.6316 11.4526 12.7158 10.9474C12.5474 10.8632 12.3789 10.7789 12.1263 10.6947C12.1263 10.5263 12.1263 10.3579 12.0421 10.1895C11.8737 10.0211 11.6211 9.76842 11.3684 9.51579C11.0316 9.51579 10.5263 9.51579 10.0211 9.43158C10.0211 9.6 9.93684 9.68421 9.85263 9.85263C9.76842 9.76842 9.6 9.76842 9.51579 9.76842C9.51579 9.51579 9.43158 9.34737 9.34737 9.17895C9.17895 9.09474 9.09474 9.09474 8.92632 9.09474C8.92632 8.92632 9.01053 8.7579 9.09474 8.50526C8.92632 8.50526 8.84211 8.50526 8.67368 8.50526C8.58947 8.58947 8.42105 8.67368 8.25263 8.84211C8.16842 8.67368 8.08421 8.58947 8 8.42105C8.08421 8.16842 8.16842 7.91579 8.25263 7.74737C8.58947 7.66316 9.01053 7.57895 9.34737 7.57895C9.43158 7.74737 9.43158 7.91579 9.51579 8.16842C9.6 8.08421 9.68421 8.08421 9.76842 8.08421C9.76842 7.91579 9.76842 7.74737 9.76842 7.57895C10.0211 7.24211 10.2737 6.90526 10.4421 6.65263C10.6947 6.48421 11.0316 6.4 11.2 6.23158C11.5368 6.14737 11.7895 6.06316 12.0421 5.97895C11.7895 5.38947 11.6211 4.8 11.2842 4.29474C11.2 4.29474 11.1158 4.29474 11.0316 4.37895C10.9474 4.12632 10.8632 3.87368 10.6947 3.70526C10.5263 3.62105 10.2737 3.62105 10.1053 3.62105C10.1053 3.95789 10.1053 4.29474 10.0211 4.71579C9.93684 4.71579 9.85263 4.71579 9.76842 4.8C9.43158 4.37895 9.09474 4.04211 8.67368 3.70526C8.7579 3.62105 8.84211 3.45263 8.84211 3.28421C9.26316 3.28421 9.6 3.28421 9.85263 3.28421C9.85263 2.94737 9.76842 2.69474 9.76842 2.44211C9.01053 2.44211 8.16842 2.44211 7.32632 2.52632C6.90526 2.44211 6.56842 2.35789 6.23158 2.27368C5.97895 2.35789 5.81053 2.44211 5.5579 2.52632C5.13684 2.44211 4.71579 2.35789 4.29474 2.10526C5.38947 1.43158 6.65263 1.09474 8 1.09474C11.7895 1.09474 14.9053 4.12632 14.9053 8C14.9053 10.9474 13.0526 13.4737 10.3579 14.4842ZM8.16842 0H7.74737C3.45263 0.0842105 0 3.62105 0 8C0 12.3789 3.53684 16 8 16C12.3789 16 16 12.3789 16 8C16 3.62105 12.5474 0.0842105 8.16842 0ZM9.34737 14.7368C8.92632 14.9053 8.42105 14.9053 8 14.9053C4.12632 14.9053 1.09474 11.7895 1.09474 8C1.09474 5.89474 2.02105 3.95789 3.53684 2.69474C3.53684 2.77895 3.62105 2.86316 3.62105 2.94737C3.53684 2.94737 3.45263 3.03158 3.36842 3.03158C3.36842 3.11579 3.36842 3.28421 3.28421 3.36842C3.45263 3.36842 3.53684 3.28421 3.62105 3.28421C3.53684 3.45263 3.36842 3.62105 3.28421 3.78947C3.36842 3.95789 3.36842 4.04211 3.36842 4.21053C3.45263 4.21053 3.53684 4.21053 3.62105 4.21053C3.45263 4.37895 3.36842 4.63158 3.2 4.88421C3.36842 4.63158 3.62105 4.29474 3.95789 4.04211C4.04211 3.95789 4.21053 3.78947 4.37895 3.62105C4.63158 3.70526 4.88421 3.87368 5.22105 3.95789C5.38947 4.29474 5.64211 4.63158 5.89474 5.05263C5.81053 5.47368 5.81053 5.89474 5.81053 6.31579C5.97895 6.56842 6.14737 6.90526 6.31579 7.24211C6.56842 7.74737 6.90526 8.16842 7.1579 8.67368C7.57895 8.84211 7.91579 9.01053 8.33684 9.09474C8.50526 9.17895 8.67368 9.26316 8.84211 9.34737C9.01053 9.6 9.17895 9.85263 9.34737 10.0211C9.51579 10.0211 9.6 10.0211 9.76842 10.0211C9.6 10.1895 9.43158 10.4421 9.34737 10.6947C9.43158 11.1158 9.51579 11.6211 9.6 12.0421C9.85263 12.2105 10.0211 12.3789 10.2737 12.5474C9.93684 13.4737 9.6 14.2316 9.34737 14.7368Z" fill="#F8F8F8"/>
</svg>
