<svg width="22" height="5" viewBox="0 0 22 5" fill="none" xmlns="http://www.w3.org/2000/svg">
<path fill-rule="evenodd" clip-rule="evenodd" d="M1.94226 4.11061C2.90363 4.11061 3.68297 3.36072 3.68297 2.43568C3.68297 1.51064 2.90363 0.760742 1.94226 0.760742C0.980884 0.760742 0.201538 1.51064 0.201538 2.43568C0.201538 3.36072 0.980884 4.11061 1.94226 4.11061Z" fill="black"/>
<path fill-rule="evenodd" clip-rule="evenodd" d="M10.8945 4.11061C11.8559 4.11061 12.6352 3.36072 12.6352 2.43568C12.6352 1.51064 11.8559 0.760742 10.8945 0.760742C9.93315 0.760742 9.15381 1.51064 9.15381 2.43568C9.15381 3.36072 9.93315 4.11061 10.8945 4.11061Z" fill="black"/>
<path fill-rule="evenodd" clip-rule="evenodd" d="M19.8468 4.11061C20.8082 4.11061 21.5875 3.36072 21.5875 2.43568C21.5875 1.51064 20.8082 0.760742 19.8468 0.760742C18.8854 0.760742 18.1061 1.51064 18.1061 2.43568C18.1061 3.36072 18.8854 4.11061 19.8468 4.11061Z" fill="black"/>
</svg>
