<svg width="15" height="24" viewBox="0 0 15 24" fill="none" xmlns="http://www.w3.org/2000/svg">
<path d="M10.7762 2.31094C10.7762 3.58854 9.74235 4.62214 8.46501 4.62214C7.18741 4.62214 6.15381 3.58854 6.15381 2.31094C6.15381 1.0336 7.18741 0 8.46501 0C9.74235 0 10.7762 1.0336 10.7762 2.31094Z" fill="#4A4A4A"/>
<path d="M13.8594 12.1786C13.4079 11.9754 10.4287 10.4949 10.4287 10.4949C10.4287 10.4949 9.37244 8.24264 8.82604 7.01038C8.31164 5.85011 7.9415 5.54797 7.21003 5.54797H6.0815C5.4903 5.54797 5.27376 5.76451 4.91243 5.96771L1.86123 8.56318C1.59456 8.71651 1.42309 8.94665 1.31962 9.27171L0.664957 13.6637C0.57029 14.3637 0.940424 14.6616 1.36016 14.7472C1.69882 14.8195 2.20869 14.648 2.31243 14.1557C2.39376 13.7496 3.01189 10.1562 3.01189 10.1562L5.00283 8.62611C4.6735 10.152 4.33936 11.8218 4.23083 12.3909C4.04123 13.3616 4.52416 14.0971 4.9079 14.6747C5.25536 15.1984 9.76044 22.2992 10.3519 23.0707C10.9474 23.8429 11.4895 24.2264 12.3154 23.7659C13.0103 23.3776 12.893 22.4931 12.5095 21.8381C12.126 21.1832 7.58043 13.7901 7.58043 13.7901L8.3431 10.4949C8.3431 10.4949 8.8711 11.2488 9.14204 11.673C9.2727 11.872 9.40844 11.953 9.76497 12.1469C10.1847 12.3773 12.2207 13.3027 12.8388 13.5827C13.3895 13.8264 14.0711 13.9213 14.3423 13.4336C14.6175 12.9504 14.2703 12.3682 13.8594 12.1786Z" fill="#4A4A4A"/>
<path d="M3.802 15.1669L2.8812 18.4125C2.8812 18.4125 0.958261 21.1933 0.42546 21.9696C0.0238593 22.5563 -0.278808 23.2696 0.407593 23.7888C1.17959 24.3709 1.798 23.6125 2.19506 23.1611C2.56066 22.7504 4.05027 20.6693 4.47 20.1411C4.75 19.7845 4.90333 19.4869 5.02547 19.1888C5.102 18.9904 5.40467 18.1688 5.59853 17.636L3.802 15.1669Z" fill="#4A4A4A"/>
</svg>
